<?xml version="1.0" encoding="UTF-8"?>
<svg version="1.1" xmlns="http://www.w3.org/2000/svg" width="512" height="512">
<path d="M0 0 C0.98768135 -0.00551503 0.98768135 -0.00551503 1.99531585 -0.01114148 C4.20609836 -0.02217195 6.41683386 -0.02602108 8.62763977 -0.02983093 C10.21114247 -0.03609613 11.79464369 -0.04274298 13.37814331 -0.04974365 C18.58279904 -0.0707819 23.78745505 -0.08114663 28.99214172 -0.09111023 C30.78460518 -0.09515804 32.57706849 -0.09927497 34.36953163 -0.10346031 C42.79184107 -0.1225124 51.21414174 -0.13674272 59.63646859 -0.14507228 C69.35387844 -0.15484159 79.07106032 -0.18115299 88.78838986 -0.22157317 C96.30189095 -0.25175205 103.81532677 -0.26654289 111.32888728 -0.26985329 C115.81504067 -0.272202 120.30095051 -0.28113884 124.7870388 -0.30631447 C129.01011365 -0.32963092 133.23278523 -0.33381418 137.45590782 -0.32355309 C139.00223127 -0.32305846 140.54857481 -0.3293573 142.09483719 -0.34310913 C150.1098981 -0.41037835 156.69504652 -0.45706321 163.54292297 4.14717102 C167.76937956 8.59036897 168.66848961 11.88016909 168.66317749 17.89880371 C168.66523949 19.69720451 168.66523949 19.69720451 168.66734314 21.53193665 C168.66374786 22.84895569 168.66015259 24.16597473 168.65644836 25.52290344 C168.65616632 26.92234292 168.65632456 28.32178254 168.65689087 29.72122192 C168.65717818 33.52258886 168.65129213 37.32392434 168.64431691 41.12528396 C168.63807237 45.09712169 168.6374787 49.06896012 168.6362915 53.040802 C168.63318144 60.56306051 168.62497242 68.08530452 168.61494201 75.60755664 C168.60377081 84.17094375 168.59826788 92.73433155 168.59324658 101.29772413 C168.58278955 118.91421465 168.56519637 136.53069167 168.54292297 154.14717102 C169.26830041 154.14348385 169.99367785 154.13979668 170.74103642 154.13599777 C188.40189908 154.04760926 206.06270546 153.98144322 223.72374058 153.93992233 C232.26454175 153.91930874 240.80519516 153.89121124 249.34590149 153.84541321 C256.7911433 153.80550848 264.23627809 153.77972946 271.68162388 153.77081704 C275.62288123 153.76560841 279.56383243 153.75339163 283.50499153 153.72425079 C287.21749604 153.697024 290.92956936 153.68874052 294.64216423 153.6947403 C296.64832443 153.69312171 298.65443808 153.67163699 300.66047668 153.64949036 C307.48886156 153.68066433 312.0695986 153.89479063 317.54292297 158.14717102 C321.60349398 163.38317048 322.66646677 167.07203945 322.69009399 173.60424805 C322.69377068 174.26270228 322.69744737 174.92115651 322.70123547 175.5995639 C322.71226595 177.81034641 322.71611508 180.02108191 322.71992493 182.23188782 C322.72619012 183.81539051 322.73283697 185.39889174 322.73983765 186.98239136 C322.76087589 192.18704709 322.77124062 197.3917031 322.78120422 202.59638977 C322.78525203 204.38885323 322.78936896 206.18131653 322.79355431 207.97377968 C322.8126064 216.39608912 322.82683672 224.81838979 322.83516628 233.24071664 C322.84493558 242.95812649 322.87124699 252.67530837 322.91166717 262.39263791 C322.94184605 269.906139 322.95663688 277.41957481 322.95994729 284.93313533 C322.962296 289.41928872 322.97123283 293.90519856 322.99640846 298.39128685 C323.01972491 302.6143617 323.02390817 306.83703328 323.01364708 311.06015587 C323.01315245 312.60647932 323.01945129 314.15282286 323.03320312 315.69908524 C323.16844058 331.81249469 323.16844058 331.81249469 318.54292297 337.14717102 C313.31382148 342.40412157 307.68376507 342.7285286 300.53605652 342.76927185 C299.23701385 342.75129547 297.93797119 342.73331909 296.5995636 342.71479797 C295.19938711 342.7133856 293.79920693 342.71418318 292.39903259 342.7170105 C288.61830627 342.71843871 284.83838127 342.68914696 281.05784035 342.65414071 C277.09941857 342.62277693 273.14097621 342.61993861 269.18244934 342.61401367 C261.69560408 342.59850451 254.20912607 342.55751612 246.72244215 342.50726622 C238.19526411 342.4512812 229.66806806 342.42386331 221.14075184 342.39878905 C203.60793018 342.34659731 186.07546547 342.25871253 168.54292297 342.14717102 C168.54753194 342.87162666 168.5521409 343.59608231 168.55688953 344.34249115 C168.6674111 361.98699231 168.75010003 379.63140532 168.80198383 397.27617645 C168.82774274 405.80914762 168.86284876 414.34188743 168.92012024 422.87471008 C168.97002637 430.31373614 169.00223081 437.75259461 169.01336545 445.19178343 C169.0198721 449.12923656 169.03511549 453.06621034 169.07157326 457.00350952 C169.10564726 460.71361879 169.11595334 464.42305371 169.10846138 468.1333046 C169.11048125 470.13572566 169.13731659 472.13807418 169.1650238 474.14030457 C169.12428531 481.28717981 168.80044013 486.91916805 163.54292297 492.14717102 C156.9985145 497.80444709 148.01638997 496.71152755 139.89057922 496.66474915 C138.30633401 496.67017562 136.72209384 496.67730123 135.13786316 496.68598938 C130.85268561 496.70416332 126.56789499 496.69717989 122.28271103 496.68447304 C117.7887903 496.67431452 113.29490171 496.68374662 108.80097961 496.6900177 C101.25559061 496.69728582 93.71035845 496.68772838 86.16499329 496.6686554 C77.45343869 496.64688823 68.74225861 496.65394019 60.03071308 496.67596102 C52.53831188 496.69413887 45.04602313 496.6966617 37.55360699 496.68620634 C33.08433586 496.6799845 28.61524052 496.6790996 24.14598083 496.69235229 C19.94330014 496.703945 15.74110022 496.6958231 11.53847122 496.67277527 C10.00022808 496.66750636 8.46194417 496.66897071 6.9237175 496.67782593 C-1.06801172 496.71957525 -7.62697541 496.72587655 -14.45707703 492.14717102 C-18.68353361 487.70397307 -19.58264367 484.41417295 -19.57733154 478.39553833 C-19.57939354 476.59713753 -19.57939354 476.59713753 -19.58149719 474.7624054 C-19.57790192 473.44538635 -19.57430664 472.12836731 -19.57060242 470.7714386 C-19.57032038 469.37199913 -19.57047861 467.9725595 -19.57104492 466.57312012 C-19.57133223 462.77175318 -19.56544618 458.9704177 -19.55847096 455.16905808 C-19.55222643 451.19722035 -19.55163275 447.22538192 -19.55044556 443.25354004 C-19.54733549 435.73128153 -19.53912647 428.20903752 -19.52909607 420.6867854 C-19.51792486 412.12339829 -19.51242194 403.56001049 -19.50740063 394.99661791 C-19.4969436 377.38012739 -19.47935043 359.76365037 -19.45707703 342.14717102 C-20.18153267 342.15177999 -20.90598831 342.15638895 -21.65239716 342.16113758 C-39.29689832 342.27165914 -56.94131132 342.35434808 -74.58608246 342.40623188 C-83.11905362 342.43199079 -91.65179344 342.46709681 -100.18461609 342.52436829 C-107.62364215 342.57427442 -115.06250062 342.60647886 -122.50168943 342.61761349 C-126.43914257 342.62412015 -130.37611635 342.63936354 -134.31341553 342.6758213 C-138.02352479 342.70989531 -141.73295972 342.72020139 -145.4432106 342.71270943 C-147.44563167 342.71472929 -149.44798018 342.74156464 -151.45021057 342.76927185 C-158.59708581 342.72853335 -164.22907406 342.40468817 -169.45707703 337.14717102 C-175.11435309 330.60276254 -174.02143356 321.62063802 -173.97465515 313.49482727 C-173.98008163 311.91058206 -173.98720723 310.32634189 -173.99589539 308.74211121 C-174.01406932 304.45693366 -174.0070859 300.17214304 -173.99437904 295.88695908 C-173.98422052 291.39303834 -173.99365262 286.89914976 -173.99992371 282.40522766 C-174.00719183 274.85983866 -173.99763439 267.3146065 -173.9785614 259.76924133 C-173.95679423 251.05768673 -173.9638462 242.34650666 -173.98586702 233.63496113 C-174.00404488 226.14255992 -174.0065677 218.65027117 -173.99611235 211.15785503 C-173.98989051 206.68858391 -173.98900561 202.21948857 -174.0022583 197.75022888 C-174.013851 193.54754819 -174.0057291 189.34534827 -173.98268127 185.14271927 C-173.97741237 183.60447613 -173.97887672 182.06619222 -173.98773193 180.52796555 C-174.02948126 172.53623633 -174.03578256 165.97727264 -169.45707703 159.14717102 C-165.01387908 154.92071443 -161.72407895 154.02160438 -155.70544434 154.0269165 C-154.50651047 154.02554184 -153.3075766 154.02416718 -152.0723114 154.02275085 C-150.75529236 154.02634613 -149.43827332 154.02994141 -148.0813446 154.03364563 C-146.68190513 154.03392767 -145.28246551 154.03376943 -143.88302612 154.03320312 C-140.08165919 154.03291581 -136.28032371 154.03880187 -132.47896409 154.04577708 C-128.50712636 154.05202162 -124.53528793 154.05261529 -120.56344604 154.05380249 C-113.04118753 154.05691255 -105.51894353 154.06512158 -97.99669141 154.07515198 C-89.4333043 154.08632319 -80.8699165 154.09182611 -72.30652392 154.09684741 C-54.69003339 154.10730445 -37.07355638 154.12489762 -19.45707703 154.14717102 C-19.4607642 153.42179358 -19.46445137 152.69641615 -19.46825027 151.94905758 C-19.55663878 134.28819492 -19.62280483 116.62738853 -19.66432571 98.96635342 C-19.6849393 90.42555224 -19.7130368 81.88489883 -19.75883484 73.3441925 C-19.79873956 65.89895069 -19.82451859 58.45381591 -19.83343101 51.00847012 C-19.83863964 47.06721276 -19.85085641 43.12626157 -19.87999725 39.18510246 C-19.90722404 35.47259796 -19.91550753 31.76052463 -19.90950775 28.04792976 C-19.91112634 26.04176956 -19.93261105 24.03565592 -19.95475769 22.02961731 C-19.92358372 15.20123244 -19.70945742 10.62049539 -15.45707703 5.14717102 C-10.22107757 1.08660001 -6.53220859 0.02362722 0 0 Z " fill="#F9415B" transform="translate(181.4570770263672,7.8528289794921875)"/>
<path d="M0 0 C6.24752699 4.27757402 7.00104705 10.96975449 8.6887207 17.98852539 C9.02292771 19.32303422 9.35867719 20.65715756 9.69584656 21.99092102 C10.60411132 25.60264047 11.49041221 29.21942567 12.37255883 32.83759999 C13.29998956 36.62639371 14.24675416 40.41035226 15.19120789 44.19493103 C16.77373972 50.54807134 18.34314869 56.90433278 19.90356445 63.26293945 C21.90634895 71.42395186 23.92968177 79.57971866 25.9599123 87.73394108 C27.70624076 94.74814239 29.44425501 101.76439911 31.1803472 108.78114009 C31.73832578 111.03533616 32.29722781 113.28930201 32.85616493 115.54326057 C33.73348964 119.08382329 34.60565106 122.62562084 35.47381783 126.16843987 C35.94545182 128.08875191 36.42159236 130.00795537 36.89785767 131.92712402 C37.1767131 133.06972183 37.45556854 134.21231964 37.74287415 135.38954163 C37.98710774 136.38227113 38.23134134 137.37500063 38.48297596 138.39781284 C39 141 39 141 39 145 C39.66 145 40.32 145 41 145 C41.09796875 144.40574219 41.1959375 143.81148437 41.296875 143.19921875 C42.31187357 137.57297665 43.84218859 132.44896709 45.88305664 127.11572266 C47.02030698 123.9433535 47.95997264 120.76590743 48.86328125 117.51953125 C50.90419635 110.29018587 53.0805523 103.10990861 55.3125 95.9375 C55.70203857 94.68251709 56.09157715 93.42753418 56.49291992 92.13452148 C59.11295742 83.72104679 61.85154427 75.35298931 64.67797852 67.00683594 C66.69680788 61.01300735 68.46672663 54.98537904 70.171875 48.89453125 C73.59255142 36.93829906 73.59255142 36.93829906 78 34 C81.4375 33.4375 81.4375 33.4375 85 34 C90.08425786 38.05546776 92.48101813 43.28250599 95.30078125 49.04296875 C96.02263863 50.49018059 96.02263863 50.49018059 96.75907898 51.96662903 C97.76964207 53.99746535 98.77539799 56.03070006 99.77661133 58.06616211 C101.31481372 61.1922021 102.8679994 64.31043542 104.42382812 67.42773438 C105.40452668 69.40320879 106.38437456 71.3791058 107.36328125 73.35546875 C107.82881912 74.2919072 108.29435699 75.22834564 108.77400208 76.19316101 C109.19832016 77.05778458 109.62263824 77.92240814 110.05981445 78.81323242 C110.43556107 79.57536545 110.81130768 80.33749847 111.19844055 81.12272644 C112 83 112 83 112 85 C112.70299728 84.99333817 113.40599457 84.98667633 114.1302948 84.97981262 C120.76567501 84.91962222 127.40097868 84.87398546 134.03657055 84.84456348 C137.44775761 84.82892861 140.85871849 84.80773086 144.26977539 84.77368164 C148.19414534 84.73475509 152.11842471 84.7202727 156.04296875 84.70703125 C157.26396774 84.69154739 158.48496674 84.67606354 159.7429657 84.66011047 C161.45417351 84.65977058 161.45417351 84.65977058 163.19995117 84.65942383 C164.20144699 84.65276199 165.20294281 84.64610016 166.23478699 84.63923645 C169.77416885 85.10100195 172.45972681 86.45972681 175 89 C175.71281662 96.12816619 175.71281662 96.12816619 172.87646484 99.59725952 C169.42076536 102.48384061 167.89575692 102.63155552 163.453125 102.64697266 C161.49584473 102.67061386 161.49584473 102.67061386 159.49902344 102.69473267 C158.08267367 102.68578261 156.66633164 102.67552755 155.25 102.6640625 C153.78938392 102.66743321 152.32877057 102.67228795 150.86816406 102.67855835 C147.81157648 102.6859179 144.75572101 102.67525528 141.69921875 102.65185547 C137.78808316 102.62336645 133.87866302 102.6397756 129.96759033 102.66971779 C126.95283159 102.68781667 123.93847722 102.68202127 120.92370605 102.66907883 C119.48205358 102.66575188 118.04036397 102.66980693 116.59875488 102.68147659 C114.58146908 102.69422403 112.56405394 102.67133735 110.546875 102.64697266 C109.40057617 102.64299469 108.25427734 102.63901672 107.07324219 102.63491821 C103.04511729 101.80272546 101.59159072 100.12435495 99 97 C97.62628092 94.65355328 96.40051949 92.3892038 95.23046875 89.94921875 C94.90460281 89.29041214 94.57873688 88.63160553 94.24299622 87.95283508 C93.21492437 85.86893491 92.2010583 83.77849127 91.1875 81.6875 C90.48856145 80.26451618 89.78870038 78.84198508 89.08789062 77.41992188 C87.38121851 73.95175672 85.6872426 70.4776562 84 67 C81.84870199 72.26139721 79.73255608 77.47946436 78.125 82.9375 C76.46455265 88.47450356 74.74855997 93.99037626 73 99.5 C70.96840842 105.91581791 68.96332285 112.33873946 66.9921875 118.7734375 C65.22938662 124.50601045 63.43302609 130.22813576 61.64111328 135.95166016 C60.59288125 139.30073357 59.54649834 142.65038453 58.5 146 C57.23922974 150.03545369 55.97802205 154.07076809 54.71484375 158.10546875 C54.50335693 158.7819043 54.29187012 159.45833984 54.07397461 160.15527344 C53.65317474 161.49886304 53.23083722 162.84197213 52.80688477 164.18457031 C51.80587802 167.3647494 50.84568847 170.54519624 49.9375 173.75390625 C49.6075 174.90761719 49.2775 176.06132812 48.9375 177.25 C48.51791016 178.77367187 48.51791016 178.77367187 48.08984375 180.328125 C46.84265617 183.38574615 45.58365823 184.95777015 43 187 C37.51404494 187.87078652 37.51404494 187.87078652 35 187 C29.35901811 181.72415659 28.18233237 175.63834575 26.41894531 168.296875 C25.93745781 166.37881042 25.93745781 166.37881042 25.44624329 164.42199707 C24.57005421 160.92975531 23.71428232 157.43280038 22.86230183 153.93458557 C21.9654975 150.26698771 21.05026687 146.6039923 20.137146 142.94042969 C18.60682153 136.78974404 17.08845739 130.63621244 15.57861328 124.48046875 C13.45167315 115.80885557 11.30333386 107.14265128 9.15060663 98.47740936 C7.47657217 91.73594083 5.80793009 84.99313559 4.140625 78.25 C3.96234948 77.52908676 3.78407396 76.80817352 3.60039616 76.06541443 C2.41728602 71.27899492 1.23921022 66.49136184 0.06347656 61.703125 C-0.23364731 60.49982544 -0.53077118 59.29652588 -0.8368988 58.0567627 C-1.10871475 56.94651733 -1.3805307 55.83627197 -1.6605835 54.69238281 C-1.89652096 53.73229309 -2.13245842 52.77220337 -2.3755455 51.78302002 C-3.0295635 48.86824368 -3.53551083 45.9504067 -4 43 C-5.39252504 45.64594556 -6.45419829 48.1955236 -7.296875 51.0625 C-7.53043701 51.84963379 -7.76399902 52.63676758 -8.00463867 53.44775391 C-8.25060791 54.28999512 -8.49657715 55.13223633 -8.75 56 C-9.28244738 57.79951015 -9.81500264 59.59898838 -10.34765625 61.3984375 C-10.61980957 62.32237305 -10.89196289 63.24630859 -11.17236328 64.19824219 C-12.49577534 68.67832382 -13.84235315 73.15140641 -15.1875 77.625 C-15.66027395 79.20048552 -16.13293377 80.77600529 -16.60546875 82.3515625 C-16.83411621 83.10598633 -17.06276367 83.86041016 -17.29833984 84.63769531 C-17.7948097 86.30917839 -18.2724867 87.98629712 -18.73681641 89.66699219 C-18.9847998 90.54774414 -19.2327832 91.42849609 -19.48828125 92.3359375 C-19.70653564 93.13306152 -19.92479004 93.93018555 -20.1496582 94.75146484 C-21.1028318 97.27191528 -22.19940892 98.99823944 -24 101 C-27.28610749 102.09536916 -29.76728937 102.15358822 -33.22802734 102.19287109 C-34.51301117 102.20893402 -35.797995 102.22499695 -37.12191772 102.24154663 C-38.52658425 102.25303265 -39.93125818 102.26364144 -41.3359375 102.2734375 C-42.04406208 102.27876118 -42.75218666 102.28408485 -43.48176956 102.28956985 C-47.22872077 102.31626857 -50.97563901 102.33565532 -54.72265625 102.35009766 C-57.82093778 102.36344565 -60.91856202 102.3913169 -64.01660156 102.43212891 C-67.7613626 102.48145598 -71.50552687 102.50621797 -75.25059891 102.51332474 C-76.67556909 102.52003399 -78.10052612 102.53524796 -79.52531052 102.55921555 C-81.52103349 102.5908768 -83.51721435 102.58790145 -85.51318359 102.58349609 C-86.64774994 102.59158295 -87.78231628 102.5996698 -88.95126343 102.60800171 C-92.95197049 101.81015097 -94.44583441 100.10247464 -97 97 C-97.9737385 93.9241319 -97.52759439 92.32384464 -97 89 C-94.47466431 86.42691692 -92.81193366 85.14123858 -89.23478699 84.51898193 C-87.73254326 84.5323056 -87.73254326 84.5323056 -86.19995117 84.54589844 C-85.05914597 84.54620056 -83.91834076 84.54650269 -82.7429657 84.54681396 C-81.52196671 84.56745911 -80.30096771 84.58810425 -79.04296875 84.609375 C-77.78486893 84.61503479 -76.5267691 84.62069458 -75.23054504 84.62652588 C-71.89777215 84.64509956 -68.56610784 84.68098884 -65.23364258 84.7253418 C-61.82838485 84.76637879 -58.42301225 84.78455473 -55.01757812 84.8046875 C-48.34474707 84.8487687 -41.6724375 84.91569303 -35 85 C-34.87579178 83.82929962 -34.75158356 82.65859924 -34.62361145 81.4524231 C-34.11687268 77.42226929 -33.18065584 73.66065227 -32.0222168 69.76123047 C-31.82367096 69.08695007 -31.62512512 68.41266968 -31.42056274 67.71795654 C-30.7700239 65.51568648 -30.11014334 63.3163611 -29.44921875 61.1171875 C-28.98913898 59.57365724 -28.52933009 58.03004622 -28.06977844 56.48635864 C-27.10828088 53.26252278 -26.14182122 50.04022469 -25.17211914 46.81884766 C-23.93362343 42.70220358 -22.71025543 38.58123672 -21.49089336 34.45889091 C-20.54649905 31.27394849 -19.59277549 28.09185654 -18.63639259 24.91049576 C-18.1815306 23.39248286 -17.72984104 21.87351542 -17.28146935 20.35357285 C-16.65261508 18.22600519 -16.01092026 16.10271458 -15.3659668 13.97998047 C-15.0048027 12.7738913 -14.64363861 11.56780212 -14.27153015 10.32516479 C-11.25962809 2.44877218 -8.60523858 -0.87510901 0 0 Z " fill="#FEFCFC" transform="translate(217,171)"/>
</svg>
